<svg width="173" height="49" viewBox="0 0 173 49" fill="none" xmlns="http://www.w3.org/2000/svg">
<path d="M-25.5735 13.516C-25.4067 13.5079 -25.2399 13.493 -25.073 13.493C-19.4093 13.4917 -13.746 13.4917 -8.08228 13.4921C-7.48276 13.4921 -7.4819 13.493 -7.48147 14.0818C-7.48062 14.7897 -7.48957 15.4976 -7.47763 16.2056C-7.47293 16.4902 -7.5634 16.6156 -7.86637 16.6446C-8.69717 16.7244 -9.52243 16.8584 -10.3537 16.9339C-11.4324 17.0321 -11.982 17.5685 -12.0204 18.7193C-12.0579 19.8377 -12.0255 20.9587 -12.034 22.0784C-12.0362 22.3553 -11.8843 22.3911 -11.6645 22.3899C-10.9566 22.3856 -10.2487 22.3886 -9.54078 22.3886C-5.94958 22.3886 -2.35839 22.389 1.2328 22.3882C1.74698 22.3882 1.7487 22.386 1.74912 21.8778C1.74955 20.8354 1.75595 19.7925 1.74528 18.75C1.73376 17.6009 1.18842 17.0428 0.0384369 16.9314C-0.83077 16.8473 -1.69614 16.7227 -2.56449 16.6271C-2.77998 16.6032 -2.85594 16.4863 -2.85637 16.2964C-2.85893 15.4597 -2.85765 14.6233 -2.85679 13.7865C-2.85637 13.58 -2.75353 13.4802 -2.54358 13.4917C-2.45398 13.4968 -2.36351 13.4908 -2.27347 13.4908C3.36422 13.4908 9.00233 13.4908 14.64 13.4908C15.2297 13.4908 15.2302 13.4917 15.2306 14.0878C15.231 14.7829 15.2225 15.478 15.2344 16.1731C15.2391 16.4612 15.1764 16.6122 14.8414 16.6459C13.8835 16.7419 12.9268 16.8597 11.9757 17.0082C11.2874 17.1157 10.8824 17.5484 10.7663 18.2371C10.713 18.5529 10.6742 18.8712 10.6746 19.1959C10.6797 22.9032 10.6797 26.61 10.6746 30.3173C10.6742 30.642 10.7122 30.9608 10.7681 31.2757C10.9093 32.0728 11.4534 32.4867 12.3618 32.5733C13.2182 32.6548 14.0704 32.7811 14.9255 32.8741C15.158 32.8993 15.2323 33.0107 15.231 33.2257C15.2268 34.0497 15.2263 34.8733 15.2306 35.6972C15.2319 35.9281 15.1282 36.0271 14.9029 36.016C14.8128 36.0117 14.7228 36.0168 14.6328 36.0168C8.99508 36.0168 3.35696 36.0168 -2.28074 36.0168C-2.85978 36.0168 -2.86106 36.016 -2.86234 35.4442C-2.86362 34.7491 -2.85722 34.054 -2.86447 33.3589C-2.86789 33.0619 -2.80174 32.8955 -2.44629 32.8622C-1.52631 32.776 -0.606747 32.6646 0.305559 32.517C1.15898 32.3787 1.63519 31.8453 1.6578 30.9889C1.68938 29.8057 1.66677 28.6207 1.67402 27.4366C1.6753 27.2023 1.57331 27.1127 1.34801 27.1191C1.0907 27.1263 0.833403 27.1195 0.575668 27.1195C-3.44053 27.1195 -7.4563 27.1195 -11.4725 27.1195C-12.0323 27.1195 -12.0328 27.1204 -12.0332 27.661C-12.0336 28.6262 -12.0293 29.5919 -12.0357 30.5571C-12.0375 30.8434 -11.9935 31.1229 -11.9282 31.3969C-11.7575 32.1112 -11.2408 32.4837 -10.3933 32.5707C-9.53736 32.6582 -8.68564 32.7824 -7.82966 32.8694C-7.56126 32.8967 -7.47934 33.0158 -7.48147 33.2646C-7.4883 34.0497 -7.49257 34.8349 -7.47976 35.62C-7.47464 35.9238 -7.59541 36.0254 -7.89154 36.0207C-8.70229 36.0079 -9.51347 36.0168 -10.3242 36.0168C-15.2156 36.0168 -20.107 36.0173 -24.9979 36.016C-25.1904 36.016 -25.3832 36.0011 -25.5757 35.9929C-25.5757 34.9629 -25.5757 33.9332 -25.5757 32.9031C-24.5059 32.7734 -23.4349 32.6544 -22.3672 32.5097C-21.6393 32.4107 -21.2429 31.9567 -21.1038 31.2462C-21.0538 30.9911 -21.0406 30.7376 -21.0406 30.4803C-21.0406 27.7165 -21.0402 24.9527 -21.0406 22.1893C-21.0406 21.0325 -21.0291 19.8753 -21.047 18.7189C-21.0637 17.6444 -21.5731 17.0718 -22.593 16.9476C-23.5864 16.8268 -24.5814 16.7189 -25.5757 16.6054C-25.5736 15.5757 -25.5735 14.5457 -25.5735 13.516Z" fill="#5F5F5F"/>
<path d="M31.8167 36.6881C31.128 36.6185 30.438 36.5601 29.7506 36.4773C26.7649 36.1171 23.8714 35.4421 21.2688 33.8539C18.3216 32.0553 16.5221 29.4673 16.1453 26.0084C15.7724 22.5857 16.6809 19.5531 19.2083 17.1162C20.7483 15.6308 22.6138 14.6873 24.6318 14.0328C26.6091 13.391 28.6433 13.0526 30.7119 12.8593C32.5498 12.6878 34.3893 12.6728 36.2255 12.7373C39.5572 12.8542 42.8369 13.3065 45.9237 14.6664C48.4187 15.7652 50.4801 17.3726 51.7231 19.8659C52.6273 21.6798 52.9572 23.6077 52.7908 25.6312C52.4144 30.2017 49.8093 33.0717 45.7731 34.8361C43.6349 35.7711 41.3724 36.2426 39.0588 36.485C38.3957 36.5545 37.7322 36.6206 37.0691 36.6885C35.3183 36.6881 33.5675 36.6881 31.8167 36.6881ZM42.3756 24.6979C42.4042 24.022 42.3321 23.2808 42.2177 22.5435C41.8158 19.9444 40.4554 18.1539 37.8384 17.4981C35.6605 16.9523 33.4599 16.951 31.2709 17.455C28.7653 18.0319 27.2718 19.6184 26.7653 22.1232C26.4022 23.9196 26.4111 25.7238 26.793 27.5198C27.2995 29.9 28.7192 31.4319 31.0891 32.0143C33.3481 32.5695 35.6268 32.5707 37.8815 31.9968C40.1452 31.4208 41.5414 29.958 42.0722 27.6755C42.295 26.7188 42.3931 25.7506 42.3756 24.6979Z" fill="#5F5F5F"/>
<path d="M172.164 35.9157C172.01 35.9238 171.856 35.9396 171.703 35.9396C165.614 35.9409 159.526 35.9409 153.437 35.9405C152.831 35.9405 152.83 35.9396 152.83 35.323C152.83 34.6151 152.838 33.9072 152.827 33.1993C152.823 32.9236 152.924 32.8208 153.203 32.7931C154.034 32.7111 154.862 32.5976 155.69 32.4965C155.91 32.4696 156.119 32.4073 156.315 32.3088C156.878 32.0263 157.054 31.5688 156.785 30.997C156.494 30.377 156.059 29.8449 155.686 29.274C155.556 29.0743 155.341 29.134 155.155 29.1336C152.015 29.1306 148.874 29.1315 145.733 29.1315C144.562 29.1315 143.39 29.1383 142.219 29.1268C141.945 29.1242 141.763 29.2032 141.622 29.4481C141.32 29.9717 140.986 30.4769 140.678 30.9975C140.312 31.6158 140.489 32.1453 141.148 32.4496C141.691 32.7005 142.286 32.6194 142.853 32.718C143.118 32.7641 143.389 32.7705 143.658 32.7961C144.225 32.8503 144.225 32.8507 144.226 33.4327C144.226 34.089 144.227 34.7457 144.225 35.402C144.225 35.9379 144.223 35.9401 143.694 35.9401C140.245 35.9409 136.795 35.9405 133.345 35.9405C132.315 35.9405 131.285 35.9298 130.256 35.9465C129.92 35.952 129.8 35.8423 129.809 35.5031C129.828 34.744 129.823 33.9844 129.811 33.2249C129.806 32.9377 129.9 32.8195 130.202 32.7909C131.059 32.7099 131.912 32.5942 132.766 32.4884C133.503 32.3971 134.002 31.9691 134.38 31.3572C135.716 29.1882 137.058 27.0218 138.398 24.855C139.596 22.9177 140.796 20.9813 141.992 19.0432C142.154 18.7816 142.325 18.5252 142.335 18.1962C142.356 17.5629 141.944 17.0837 141.312 17.0176C140.098 16.8909 138.886 16.7509 137.671 16.6378C137.385 16.6114 137.297 16.4992 137.301 16.2286C137.311 15.4695 137.319 14.7095 137.298 13.9504C137.288 13.5979 137.406 13.4832 137.761 13.4849C140.181 13.4972 142.601 13.4913 145.02 13.4913C148.058 13.4913 151.096 13.5135 154.134 13.4793C155.226 13.467 155.998 13.8958 156.582 14.791C159.162 18.7471 161.754 22.6958 164.341 26.6472C165.356 28.1978 166.374 29.7459 167.382 31.3017C167.914 32.1236 168.664 32.5174 169.634 32.5776C170.479 32.6301 171.321 32.7406 172.165 32.8255C172.164 33.856 172.164 34.8861 172.164 35.9157ZM148.577 25.0764C149.876 25.0764 151.175 25.0773 152.475 25.0743C152.571 25.0739 152.702 25.1238 152.757 25.0154C152.811 24.9109 152.703 24.8277 152.65 24.7457C151.309 22.7022 149.965 20.6617 148.628 18.6156C148.474 18.3792 148.395 18.3293 148.224 18.6114C146.98 20.6553 145.722 22.6903 144.471 24.7287C144.274 25.0496 144.288 25.0752 144.679 25.0756C145.978 25.0777 147.277 25.0764 148.577 25.0764Z" fill="#5F5F5F"/>
<path d="M83.3111 29.9925C83.3111 26.9488 83.3184 24.0143 83.3069 21.0803C83.3035 20.194 83.3837 19.3043 83.2497 18.421C83.1029 17.4511 82.6425 17.0364 81.673 16.9374C80.817 16.8499 79.9649 16.7253 79.1085 16.6387C78.8405 16.6113 78.7496 16.4991 78.7654 16.2457C78.8179 15.3991 78.8657 14.552 78.9096 13.7046C78.9194 13.5168 78.995 13.4161 79.1896 13.4191C79.2924 13.4204 79.3957 13.4161 79.4985 13.4161C83.9137 13.4161 88.3288 13.4157 92.744 13.4161C93.3205 13.4161 93.3213 13.4174 93.3218 13.9888C93.3226 14.7095 93.3145 15.4306 93.3252 16.1514C93.329 16.4193 93.2428 16.538 92.9578 16.567C92.1786 16.6459 91.4046 16.7769 90.625 16.852C89.2983 16.9796 88.8072 17.4887 88.7709 18.8273C88.7671 18.9689 88.7696 19.1106 88.7696 19.2518C88.7696 24.6194 88.7696 29.987 88.7696 35.3546C88.7696 35.9392 88.7688 35.9405 88.1735 35.9405C84.6723 35.9405 81.1712 35.9277 77.67 35.9473C76.6459 35.9533 75.8958 35.5782 75.2715 34.7504C71.5284 29.7873 67.7559 24.8469 63.9927 19.8991C63.9099 19.7903 63.8203 19.6871 63.7243 19.5697C63.6343 19.7122 63.6731 19.8432 63.6731 19.9657C63.6705 23.338 63.6688 26.7107 63.6744 30.083C63.6748 30.4551 63.7021 30.8293 63.7482 31.1989C63.8506 32.0139 64.4075 32.4777 65.3164 32.5707C66.1723 32.6582 67.024 32.7832 67.88 32.8694C68.1518 32.8967 68.2252 33.0192 68.2227 33.2663C68.215 34.0386 68.206 34.8114 68.2265 35.5829C68.2355 35.9272 68.107 36.0237 67.7763 36.022C65.5754 36.0113 63.374 36.0164 61.173 36.0164C58.856 36.0164 56.5389 36.01 54.2223 36.0228C53.8618 36.0249 53.7154 35.9255 53.7278 35.5453C53.7517 34.7994 53.7423 34.0523 53.7312 33.306C53.7269 33.0252 53.8089 32.8937 54.1161 32.8647C54.9469 32.7862 55.773 32.6556 56.6034 32.5741C57.7418 32.4623 58.2739 31.8756 58.282 30.6365C58.2931 28.9117 58.2855 27.1869 58.2855 25.4617C58.2855 23.3508 58.2855 21.2399 58.2855 19.1285C58.2855 18.9996 58.2893 18.8708 58.2816 18.7423C58.2125 17.545 57.6975 17.0355 56.5146 16.9284C55.6834 16.8533 54.8573 16.7253 54.0273 16.6306C53.817 16.6067 53.7354 16.5051 53.7359 16.305C53.738 15.4682 53.738 14.6318 53.7367 13.7951C53.7363 13.5873 53.8315 13.4861 54.0418 13.4925C54.1447 13.4959 54.2479 13.4912 54.3508 13.4912C59.2421 13.4912 64.1335 13.4912 69.0249 13.4912C69.231 13.4912 69.4371 13.4887 69.6428 13.4964C70.4309 13.5245 71.0577 13.8138 71.554 14.4727C75.3551 19.5207 79.1759 24.5541 82.9907 29.5919C83.0739 29.7028 83.1635 29.8086 83.3111 29.9925Z" fill="#5F5F5F"/>
<path d="M107.47 35.9405C102.792 35.9405 98.9307 35.9409 95.0685 35.94C94.5159 35.94 94.5151 35.9383 94.5142 35.3857C94.5134 34.665 94.5228 33.9439 94.51 33.2232C94.5048 32.9347 94.6013 32.8221 94.9021 32.7905C95.8601 32.6902 96.8176 32.5763 97.7683 32.4244C98.4643 32.3134 98.8684 31.8803 98.9785 31.1954C99.0335 30.8541 99.063 30.5046 99.0638 30.1585C99.0698 26.4509 99.0659 22.7436 99.0706 19.0359C99.0711 18.7116 99.0374 18.392 98.9823 18.0767C98.8872 17.5335 98.5611 17.1789 98.0303 17.0193C97.3224 16.8064 96.5829 16.8119 95.8588 16.7112C94.5829 16.5341 94.8509 16.7987 94.8227 15.5962C94.8091 15.0172 94.8283 14.4377 94.8176 13.8582C94.8129 13.5988 94.9017 13.4673 95.1735 13.4917C95.2375 13.4976 95.3019 13.4917 95.3664 13.4917C102.781 13.4921 110.197 13.4767 117.612 13.5023C120.267 13.5117 122.867 13.9192 125.329 14.9749C127.913 16.0831 129.922 17.804 130.968 20.4867C131.643 22.2196 131.821 24.0199 131.653 25.8692C131.506 27.4852 131.072 29.0013 130.221 30.3868C129.172 32.0958 127.679 33.3111 125.895 34.1773C123.735 35.2253 121.431 35.7361 119.047 35.8568C114.918 36.0655 110.785 35.8722 107.47 35.9405ZM107.844 24.7526C107.844 26.8498 107.844 28.9471 107.844 31.0448C107.844 31.5876 107.845 31.5897 108.367 31.5897C110.658 31.5906 112.948 31.594 115.239 31.5867C115.778 31.585 116.316 31.5782 116.855 31.5044C119.103 31.198 120.424 30.0531 120.939 27.8449C121.388 25.9175 121.358 23.9674 121.031 22.0237C120.848 20.9369 120.447 19.9431 119.616 19.1729C118.677 18.302 117.511 17.976 116.284 17.9525C113.634 17.9026 110.983 17.9324 108.332 17.9098C107.933 17.9064 107.834 18.0395 107.837 18.4215C107.853 20.532 107.844 22.6425 107.844 24.7526Z" fill="#5F5F5F"/>
</svg>
