<svg width="492" height="360" viewBox="0 0 492 360" fill="none" xmlns="http://www.w3.org/2000/svg">
<path d="M3 300L-22 240H3H28L53 300L28 360H3H-22L3 300Z" fill="white" fill-opacity="0.06"/>
<path d="M94 300L69 240H94H119L144 300L119 360H94H69L94 300Z" fill="white" fill-opacity="0.06"/>
<path d="M185 300L160 240H185H210L235 300L210 360H185H160L185 300Z" fill="white" fill-opacity="0.06"/>
<path d="M276 300L251 240H276H301L326 300L301 360H276H251L276 300Z" fill="white" fill-opacity="0.06"/>
<path d="M367 300L342 240H367H392L417 300L392 360H367H342L367 300Z" fill="white" fill-opacity="0.06"/>
<path d="M458 300L433 240H458H483L508 300L483 360H458H433L458 300Z" fill="white" fill-opacity="0.06"/>
<path d="M-43 180L-68 120H-43H-18L7 180L-18 240H-43H-68L-43 180Z" fill="white" fill-opacity="0.06"/>
<path d="M48 180L23 120H48H73L98 180L73 240H48H23L48 180Z" fill="white" fill-opacity="0.06"/>
<path d="M139 180L114 120H139H164L189 180L164 240H139H114L139 180Z" fill="white" fill-opacity="0.06"/>
<path d="M230 180L205 120H230H255L280 180L255 240H230H205L230 180Z" fill="white" fill-opacity="0.06"/>
<path d="M321 180L296 120H321H346L371 180L346 240H321H296L321 180Z" fill="white" fill-opacity="0.06"/>
<path d="M412 180L387 120H412H437L462 180L437 240H412H387L412 180Z" fill="white" fill-opacity="0.06"/>
<path d="M503 180L478 120H503H528L553 180L528 240H503H478L503 180Z" fill="white" fill-opacity="0.06"/>
<path d="M2 60L-23 0H2H27L52 60L27 120H2H-23L2 60Z" fill="white" fill-opacity="0.06"/>
<path d="M93 60L68 0H93H118L143 60L118 120H93H68L93 60Z" fill="white" fill-opacity="0.06"/>
<path d="M184 60L159 0H184H209L234 60L209 120H184H159L184 60Z" fill="white" fill-opacity="0.06"/>
<path d="M275 60L250 0H275H300L325 60L300 120H275H250L275 60Z" fill="white" fill-opacity="0.06"/>
<path d="M366 60L341 0H366H391L416 60L391 120H366H341L366 60Z" fill="white" fill-opacity="0.06"/>
<path d="M457 60L432 0H457H482L507 60L482 120H457H432L457 60Z" fill="white" fill-opacity="0.06"/>
</svg>
